<svg width="25" height="24" viewBox="0 0 25 24" fill="none" xmlns="http://www.w3.org/2000/svg">
<g clip-path="url(#clip0_229_1609)">
<path d="M12.6666 21C17.6372 21 21.6666 16.9706 21.6666 12C21.6666 7.02944 17.6372 3 12.6666 3C7.69606 3 3.66663 7.02944 3.66663 12C3.66663 16.9706 7.69606 21 12.6666 21Z" stroke="#444444" stroke-width="1.5" stroke-linecap="round" stroke-linejoin="round"/>
<path d="M12.6666 15C14.7377 15 16.4166 13.3211 16.4166 11.25C16.4166 9.17893 14.7377 7.5 12.6666 7.5C10.5956 7.5 8.91663 9.17893 8.91663 11.25C8.91663 13.3211 10.5956 15 12.6666 15Z" stroke="#444444" stroke-width="1.5" stroke-linecap="round" stroke-linejoin="round"/>
<path d="M6.64789 18.6909C7.21218 17.5794 8.07322 16.6459 9.13558 15.9938C10.1979 15.3418 11.4201 14.9966 12.6666 14.9966C13.9132 14.9966 15.1353 15.3418 16.1977 15.9938C17.2601 16.6459 18.1211 17.5794 18.6854 18.6909" stroke="#444444" stroke-width="1.5" stroke-linecap="round" stroke-linejoin="round"/>
</g>
<defs>
<clipPath id="clip0_229_1609">
<rect width="24" height="24" fill="white" transform="translate(0.666626)"/>
</clipPath>
</defs>
</svg>
