<svg width="25" height="24" viewBox="0 0 25 24" fill="none" xmlns="http://www.w3.org/2000/svg">
<g clip-path="url(#clip0_229_654)">
<path d="M16.7916 11.25C16.7916 12.0658 16.5497 12.8634 16.0964 13.5417C15.6432 14.2201 14.9989 14.7488 14.2452 15.061C13.4915 15.3732 12.6621 15.4549 11.8619 15.2957C11.0617 15.1366 10.3267 14.7437 9.74981 14.1668C9.17292 13.5899 8.78006 12.8549 8.62089 12.0547C8.46173 11.2546 8.54342 10.4252 8.85563 9.67143C9.16784 8.91769 9.69655 8.27345 10.3749 7.82019C11.0533 7.36693 11.8508 7.125 12.6666 7.125C13.7603 7.12624 14.8088 7.56124 15.5821 8.33455C16.3554 9.10787 16.7904 10.1564 16.7916 11.25ZM22.4166 12C22.4166 13.9284 21.8448 15.8134 20.7735 17.4168C19.7021 19.0202 18.1794 20.2699 16.3978 21.0078C14.6162 21.7458 12.6558 21.9389 10.7645 21.5627C8.87319 21.1865 7.1359 20.2579 5.77234 18.8943C4.40878 17.5307 3.48018 15.7934 3.10397 13.9021C2.72777 12.0108 2.92085 10.0504 3.6588 8.26884C4.39676 6.48726 5.64644 4.96451 7.24982 3.89317C8.8532 2.82183 10.7383 2.25 12.6666 2.25C15.2517 2.25273 17.73 3.28084 19.5579 5.10872C21.3858 6.93661 22.4139 9.41498 22.4166 12ZM20.9166 12C20.9154 10.8896 20.6903 9.79077 20.2547 8.76934C19.8191 7.7479 19.182 6.82481 18.3815 6.05525C17.5809 5.2857 16.6334 4.68549 15.5956 4.29053C14.5578 3.89556 13.4509 3.71395 12.3413 3.75656C7.92569 3.92719 4.40444 7.605 4.41663 12.0234C4.42086 14.0349 5.16271 15.9749 6.50163 17.4759C7.0469 16.6851 7.73954 16.0068 8.54163 15.4781C8.61002 15.433 8.69131 15.4114 8.77309 15.4169C8.85487 15.4223 8.93261 15.4543 8.99444 15.5081C10.0137 16.3897 11.3162 16.8749 12.6638 16.8749C14.0114 16.8749 15.314 16.3897 16.3332 15.5081C16.395 15.4543 16.4728 15.4223 16.5545 15.4169C16.6363 15.4114 16.7176 15.433 16.786 15.4781C17.5891 16.0065 18.2827 16.6848 18.8288 17.4759C20.1744 15.9694 20.9176 14.0199 20.9166 12Z" fill="black"/>
</g>
<defs>
<clipPath id="clip0_229_654">
<rect width="24" height="24" fill="white" transform="translate(0.666626)"/>
</clipPath>
</defs>
</svg>
