<svg width="25" height="24" viewBox="0 0 25 24" fill="none" xmlns="http://www.w3.org/2000/svg">
<g clip-path="url(#clip0_229_640)">
<path d="M3.48334 13.6406C3.09283 11.5328 3.46752 9.35478 4.53997 7.49862C5.61242 5.64246 7.31219 4.23005 9.33334 3.51562V10.2656L3.48334 13.6406Z" stroke="black" stroke-width="1.5" stroke-linecap="round" stroke-linejoin="round"/>
<path d="M12.3333 12.0394V3C13.9101 3.00024 15.4592 3.41475 16.8255 4.20202C18.1917 4.9893 19.3271 6.12171 20.118 7.48585C20.9089 8.84999 21.3275 10.398 21.3319 11.9748C21.3364 13.5516 20.9264 15.1019 20.1432 16.4705C19.3599 17.839 18.2309 18.9778 16.8691 19.7727C15.5073 20.5676 13.9605 20.9908 12.3837 20.9999C10.8069 21.0089 9.2554 20.6036 7.88454 19.8243C6.51369 19.0451 5.37162 17.9195 4.57269 16.56L12.3333 12.0394Z" stroke="black" stroke-width="1.5" stroke-linecap="round" stroke-linejoin="round"/>
</g>
<defs>
<clipPath id="clip0_229_640">
<rect width="24" height="24" fill="white" transform="translate(0.333344)"/>
</clipPath>
</defs>
</svg>
