<svg width="21" height="20" viewBox="0 0 21 20" fill="none" xmlns="http://www.w3.org/2000/svg">
<path d="M7.70827 8.91531C7.82231 8.84947 7.917 8.75477 7.98283 8.64072C8.04866 8.52668 8.0833 8.39731 8.08327 8.26563V1.51563C8.0826 1.39605 8.05335 1.27837 7.99796 1.1724C7.94256 1.06643 7.86264 0.975234 7.76484 0.906428C7.66705 0.837622 7.55422 0.793197 7.43576 0.776858C7.31731 0.760519 7.19666 0.772739 7.08389 0.8125C4.89481 1.58726 3.05388 3.11748 1.89203 5.12807C0.730189 7.13865 0.323634 9.49774 0.745455 11.7813C0.767319 11.8993 0.81722 12.0104 0.89096 12.1052C0.9647 12.2 1.06012 12.2757 1.1692 12.3259C1.26751 12.3719 1.37475 12.3956 1.48327 12.3953C1.6149 12.3954 1.74424 12.3608 1.85827 12.295L7.70827 8.91531ZM6.58327 2.65188V7.8325L2.09452 10.4228C2.08327 10.2812 2.08327 10.1388 2.08327 10C2.0846 8.47971 2.50542 6.98928 3.29939 5.69279C4.09336 4.3963 5.22969 3.34404 6.58327 2.65188ZM20.0833 10C20.084 12.1404 19.3804 14.2216 18.0809 15.9225C16.7815 17.6234 14.9585 18.8493 12.8932 19.4113C10.8278 19.9733 8.63494 19.84 6.65286 19.0321C4.67078 18.2241 3.00965 16.7863 1.92577 14.9406C1.87524 14.8554 1.84211 14.761 1.82829 14.6628C1.81447 14.5647 1.82024 14.4648 1.84526 14.3689C1.87028 14.273 1.91405 14.183 1.97405 14.1041C2.03405 14.0253 2.10909 13.9591 2.19483 13.9094L9.58327 9.60906V1C9.58327 0.801088 9.66228 0.610322 9.80294 0.46967C9.94359 0.329018 10.1344 0.25 10.3333 0.25C12.0347 0.250868 13.7063 0.696751 15.1822 1.54338C16.658 2.39001 17.8868 3.60794 18.7464 5.07625C18.7567 5.09125 18.7661 5.10625 18.7755 5.12219C18.7848 5.13813 18.7942 5.15688 18.8026 5.17375C19.6439 6.64297 20.0854 8.30699 20.0833 10Z" fill="black"/>
</svg>
